<svg width="184" height="36" viewBox="0 0 184 36" fill="none" xmlns="http://www.w3.org/2000/svg">
<path d="M3.02402 1.68799H6.91202L15.84 30.344L15.024 35.576L3.02402 1.68799ZM24.528 0.631989L24.912 4.51999L16.464 30.248C16.464 30.248 16.384 30.536 16.224 31.112C16.064 31.656 15.904 32.344 15.744 33.176C15.584 33.976 15.488 34.776 15.456 35.576H15.024L14.16 31.304L24.096 0.631989H24.528ZM24.528 0.679988L34.608 28.952L33.552 35.576L22.896 5.86399L24.528 0.679988ZM44.016 1.68799L35.04 30.248C35.04 30.248 34.96 30.536 34.8 31.112C34.64 31.688 34.464 32.392 34.272 33.224C34.112 34.024 34.016 34.808 33.984 35.576H33.552L32.976 30.824L41.328 1.68799H44.016ZM40.416 4.85599C40.672 3.89599 40.592 3.15999 40.176 2.64799C39.76 2.13599 39.232 1.87999 38.592 1.87999H38.16V1.39999H47.616V1.87999C47.616 1.87999 47.552 1.87999 47.424 1.87999C47.296 1.87999 47.232 1.87999 47.232 1.87999C46.496 1.87999 45.696 2.11999 44.832 2.59999C43.968 3.04799 43.36 3.79999 43.008 4.85599H40.416ZM7.92002 4.85599H4.12802C3.74402 3.79999 3.12002 3.04799 2.25602 2.59999C1.42402 2.11999 0.64002 1.87999 -0.0959805 1.87999C-0.0959805 1.87999 -0.15998 1.87999 -0.28798 1.87999C-0.41598 1.87999 -0.47998 1.87999 -0.47998 1.87999V1.39999H10.176V1.87999H9.74402C9.13602 1.87999 8.59202 2.13599 8.11202 2.64799C7.66402 3.15999 7.60002 3.89599 7.92002 4.85599Z" fill="#E3B100"/>
<path d="M54.8711 6.19999V35H51.7991V6.19999H54.8711ZM67.7831 33.512L67.6871 35H54.7751V33.512H67.7831ZM65.5271 19.88V21.32H54.7751V19.88H65.5271ZM67.7351 6.19999V7.68799H54.7751V6.19999H67.7351ZM70.4712 28.136L67.8311 35H60.5351L62.1671 33.512C63.7671 33.512 65.0471 33.288 66.0071 32.84C66.9991 32.36 67.7992 31.72 68.4072 30.92C69.0152 30.088 69.5431 29.16 69.9911 28.136H70.4712ZM65.5271 21.224V23.96H64.9991V23.336C64.9991 22.792 64.8391 22.328 64.5191 21.944C64.1992 21.528 63.7031 21.32 63.0311 21.32V21.224H65.5271ZM65.5271 17.24V19.976H63.0311V19.88C63.7031 19.88 64.1992 19.688 64.5191 19.304C64.8391 18.888 64.9991 18.408 64.9991 17.864V17.24H65.5271ZM67.7351 7.54399V10.856H67.2071V10.136C67.2071 9.46399 66.9831 8.88799 66.5351 8.40799C66.1191 7.92799 65.5432 7.68799 64.8072 7.68799V7.54399H67.7351ZM67.7351 5.43199V6.67999L62.2631 6.19999C63.2551 6.19999 64.3111 6.11999 65.4311 5.95999C66.5511 5.76799 67.3191 5.59199 67.7351 5.43199ZM51.8951 31.928L52.5191 35H48.3431V34.52C48.3431 34.52 48.4551 34.52 48.6791 34.52C48.9031 34.52 49.0151 34.52 49.0151 34.52C49.8151 34.52 50.4711 34.264 50.9831 33.752C51.4951 33.24 51.7671 32.632 51.7991 31.928H51.8951ZM51.8951 9.22399H51.7991C51.7671 8.48799 51.4951 7.87999 50.9831 7.39999C50.4711 6.91999 49.8151 6.67999 49.0151 6.67999C49.0151 6.67999 48.9031 6.67999 48.6791 6.67999C48.4551 6.67999 48.3431 6.67999 48.3431 6.67999V6.19999H52.5191L51.8951 9.22399Z" fill="#E3B100"/>
<path d="M78.1575 6.19999H83.8695C84.7335 6.19999 85.7255 6.27999 86.8455 6.43999C87.9975 6.59999 89.1015 6.91999 90.1575 7.39999C91.2135 7.87999 92.0935 8.59999 92.7975 9.55999C93.5015 10.52 93.8535 11.8 93.8535 13.4C93.8535 14.36 93.5975 15.256 93.0855 16.088C92.5735 16.92 91.9175 17.624 91.1175 18.2C90.3175 18.744 89.4695 19.128 88.5735 19.352C90.1415 19.512 91.5175 19.96 92.7015 20.696C93.9175 21.4 94.8775 22.296 95.5815 23.384C96.2855 24.472 96.6375 25.656 96.6375 26.936C96.6375 28.504 96.3015 29.816 95.6295 30.872C94.9895 31.896 94.1415 32.712 93.0855 33.32C92.0295 33.928 90.8775 34.36 89.6295 34.616C88.3815 34.872 87.1655 35 85.9815 35H80.1255C80.1255 35 80.1255 34.888 80.1255 34.664C80.1575 34.408 80.1735 34.168 80.1735 33.944C80.1735 33.688 80.1735 33.56 80.1735 33.56H85.9335C87.3095 33.56 88.5415 33.336 89.6295 32.888C90.7495 32.408 91.6295 31.672 92.2695 30.68C92.9095 29.688 93.2295 28.44 93.2295 26.936C93.2295 25.4 92.8935 24.168 92.2215 23.24C91.5495 22.28 90.6695 21.56 89.5815 21.08C88.4935 20.568 87.2935 20.232 85.9815 20.072C84.6695 19.88 83.3575 19.784 82.0455 19.784V19.304C82.9095 19.304 83.8375 19.24 84.8295 19.112C85.8215 18.984 86.7335 18.728 87.5655 18.344C88.4295 17.928 89.1335 17.336 89.6775 16.568C90.2215 15.768 90.4935 14.712 90.4935 13.4C90.4935 11.384 89.9015 9.92799 88.7175 9.03199C87.5335 8.10399 85.9015 7.63999 83.8215 7.63999H78.5895C78.5895 7.60799 78.5415 7.47999 78.4455 7.25599C78.3815 6.99999 78.3175 6.75999 78.2535 6.53599C78.1895 6.31199 78.1575 6.19999 78.1575 6.19999ZM80.5575 6.19999V35H77.5335V6.19999H80.5575ZM77.6775 31.928V35H74.0775V34.52C74.0775 34.52 74.1735 34.52 74.3655 34.52C74.5575 34.52 74.6535 34.52 74.6535 34.52C75.4855 34.52 76.1575 34.264 76.6695 33.752C77.2135 33.24 77.5015 32.632 77.5335 31.928H77.6775ZM77.6775 9.27199H77.5335C77.5015 8.50399 77.2135 7.87999 76.6695 7.39999C76.1575 6.91999 75.4855 6.67999 74.6535 6.67999C74.6535 6.67999 74.5575 6.67999 74.3655 6.67999C74.1735 6.67999 74.0775 6.67999 74.0775 6.67999V6.19999H77.6775V9.27199Z" fill="#E3B100"/>
<path d="M132.893 20.984L132.317 28.52C131.485 29.896 130.429 31.128 129.149 32.216C127.901 33.272 126.413 34.12 124.685 34.76C122.989 35.368 121.037 35.672 118.829 35.672C115.501 35.64 112.541 34.904 109.949 33.464C107.357 32.024 105.325 30.008 103.853 27.416C102.413 24.792 101.693 21.704 101.693 18.152C101.693 14.664 102.413 11.624 103.853 9.03199C105.293 6.40799 107.309 4.37599 109.901 2.93599C112.525 1.46399 115.597 0.727987 119.117 0.727987C121.485 0.727987 123.613 1.04799 125.501 1.68799C127.421 2.29599 129.085 3.06399 130.493 3.99199L131.453 10.76H131.021C130.317 7.94399 128.877 5.81599 126.701 4.37599C124.525 2.90399 121.997 2.16799 119.117 2.16799C116.301 2.16799 113.853 2.83999 111.773 4.18399C109.725 5.49599 108.125 7.35199 106.973 9.75199C105.853 12.12 105.293 14.904 105.293 18.104C105.293 21.304 105.853 24.104 106.973 26.504C108.125 28.904 109.709 30.776 111.725 32.12C113.773 33.464 116.141 34.168 118.829 34.232C121.101 34.232 123.197 33.816 125.117 32.984C127.069 32.12 128.701 30.728 130.013 28.808C131.325 26.856 132.157 24.248 132.509 20.984H132.893Z" fill="#E3B100"/>
<path d="M144.881 6.19999V35H141.857V6.19999H144.881ZM142.001 31.928V35H137.921V34.52C137.921 34.52 138.033 34.52 138.257 34.52C138.481 34.52 138.593 34.52 138.593 34.52C139.489 34.52 140.241 34.264 140.849 33.752C141.489 33.24 141.825 32.632 141.857 31.928H142.001ZM144.737 31.928H144.881C144.913 32.632 145.233 33.24 145.841 33.752C146.481 34.264 147.249 34.52 148.145 34.52C148.145 34.52 148.241 34.52 148.433 34.52C148.657 34.52 148.769 34.52 148.769 34.52L148.817 35H144.737V31.928ZM144.737 9.27199V6.19999H148.817L148.769 6.67999C148.769 6.67999 148.657 6.67999 148.433 6.67999C148.241 6.67999 148.145 6.67999 148.145 6.67999C147.249 6.67999 146.481 6.93599 145.841 7.44799C145.233 7.92799 144.913 8.53599 144.881 9.27199H144.737ZM142.001 9.27199H141.857C141.825 8.53599 141.489 7.92799 140.849 7.44799C140.241 6.93599 139.489 6.67999 138.593 6.67999C138.561 6.67999 138.433 6.67999 138.209 6.67999C138.017 6.67999 137.921 6.67999 137.921 6.67999V6.19999H142.001V9.27199Z" fill="#E3B100"/>
<path d="M167.102 35.672L153.902 6.48799H157.694L167.918 31.4L167.102 35.672ZM167.102 35.672L166.766 32.36L177.758 6.34399H180.782L169.406 30.728C169.406 30.728 169.31 30.92 169.118 31.304C168.958 31.688 168.75 32.168 168.494 32.744C168.27 33.288 168.062 33.832 167.87 34.376C167.678 34.92 167.566 35.352 167.534 35.672H167.102ZM176.366 9.70399C176.718 8.74399 176.67 8.00799 176.222 7.49599C175.774 6.95199 175.262 6.67999 174.686 6.67999H174.35V6.19999H183.47V6.67999C183.47 6.67999 183.406 6.67999 183.278 6.67999C183.15 6.67999 183.086 6.67999 183.086 6.67999C182.414 6.67999 181.726 6.91999 181.022 7.39999C180.318 7.84799 179.71 8.61599 179.198 9.70399H176.366ZM158.99 9.70399H155.342C154.862 8.61599 154.27 7.84799 153.566 7.39999C152.862 6.91999 152.19 6.67999 151.55 6.67999C151.55 6.67999 151.486 6.67999 151.358 6.67999C151.23 6.67999 151.166 6.67999 151.166 6.67999V6.19999H161.006V6.67999H160.622C160.078 6.67999 159.582 6.95199 159.134 7.49599C158.718 8.00799 158.67 8.74399 158.99 9.70399Z" fill="#E3B100"/>
</svg>
